<?xml version="1.0" encoding="iso-8859-1"?>
<!-- Generator: Adobe Illustrator 19.0.0, SVG Export Plug-In . SVG Version: 6.00 Build 0)  -->
<svg version="1.1" id="Layer_1" xmlns="http://www.w3.org/2000/svg" xmlns:xlink="http://www.w3.org/1999/xlink" x="0px" y="0px"
	 viewBox="0 0 288 172"  xml:space="preserve">
<path style="fill:#F2F2F2;" d="M512,54.237v403.527H0V54.237H512z"/>
<path style="fill:#2BA5F7;" d="M458.846,165.923c25.282,25.282,25.282,66.266,0,91.548s-66.266,25.282-91.548,0
	c-7.356-7.356-12.57-16.054-15.643-25.294h0.012l36.158-80.084v-0.012C411.377,142.101,439.637,146.714,458.846,165.923z"/>
<g>
	<path style="fill:#F7B239;" d="M387.825,152.093l25.247,59.604l-61.405,20.48h-0.012c-7.498-22.516-2.283-48.328,15.643-66.254
		c6.073-6.073,13.065-10.699,20.527-13.842L387.825,152.093L387.825,152.093z"/>
	<rect x="154.871" y="316.298" style="fill:#F7B239;" width="31.779" height="87.829"/>
</g>
<rect x="96.562" y="343.923" style="fill:#F95428;" width="31.779" height="60.204"/>
<path style="fill:#F7B239;" d="M102.871,137.44l-3.413,62.382l-56.202-25.529c0-22.752,18.444-41.195,41.195-41.195
	C91.077,133.096,97.339,134.662,102.871,137.44z"/>
<path style="fill:#F95428;" d="M125.646,174.292c0,5.473-1.059,10.687-3.001,15.454h-0.012l-39.654,8.898l1.471-24.352l18.42-36.852
	C116.383,144.196,125.646,158.167,125.646,174.292z"/>
<g>
	<path style="fill:#2BA5F7;" d="M122.633,189.746h0.012c-6.109,15.089-20.904,25.741-38.194,25.741
		c-22.752,0-41.195-18.444-41.195-41.195h41.195L122.633,189.746z"/>
	<rect x="38.253" y="366.639" style="fill:#2BA5F7;" width="31.779" height="37.488"/>
</g>
<g>
	<rect x="149.775" y="146.432" style="fill:#808080;" width="155.954" height="10.593"/>
	<rect x="149.775" y="190.405" style="fill:#808080;" width="142.713" height="10.593"/>
	<rect x="149.775" y="168.419" style="fill:#808080;" width="118.125" height="10.593"/>
	<rect x="258.354" y="332.918" style="fill:#808080;" width="221.278" height="10.593"/>
	<rect x="339.568" y="354.881" style="fill:#808080;" width="140.064" height="10.593"/>
	<rect x="308.966" y="376.856" style="fill:#808080;" width="170.667" height="10.593"/>
	<rect x="220.101" y="398.83" style="fill:#808080;" width="259.531" height="10.593"/>
</g>
<g>
	<polygon style="fill:#F95428;" points="263.142,80.149 254.819,88.471 246.497,80.149 239.006,87.638 247.329,95.962 
		239.006,104.284 246.497,111.774 254.819,103.451 263.142,111.774 270.633,104.284 262.31,95.962 270.633,87.638 	"/>
	<rect x="287.191" y="90.665" style="fill:#F95428;" width="60.028" height="10.593"/>
	<rect x="164.782" y="90.665" style="fill:#F95428;" width="60.028" height="10.593"/>
</g>
<g>
	<rect x="182.437" y="242.288" style="fill:#808080;" width="137.71" height="10.593"/>
	<rect x="228.929" y="266.664" style="fill:#808080;" width="91.218" height="10.593"/>
</g>
<g>
	<circle style="fill:#F7B239;" cx="481.398" cy="81.508" r="8.828"/>
	<circle style="fill:#F7B239;" cx="481.398" cy="430.315" r="8.828"/>
	<circle style="fill:#F7B239;" cx="30.602" cy="430.315" r="8.828"/>
	<circle style="fill:#F7B239;" cx="30.602" cy="81.508" r="8.828"/>
</g>
<g>
</g>
<g>
</g>
<g>
</g>
<g>
</g>
<g>
</g>
<g>
</g>
<g>
</g>
<g>
</g>
<g>
</g>
<g>
</g>
<g>
</g>
<g>
</g>
<g>
</g>
<g>
</g>
<g>
</g>
</svg>
